# xmcd
# 
# Track frame offsets:
#     150
#     79790
#     126588
#     163564
# 
# Disc length: 3036
# 
# Revision: 0
# Processed by: cddbd v1.5.2PL0 Copyright (c) Steve Scherf et al.
# Submitted via: fre:ac v1.0.17
# 
DISCID=2d0bda04
DTITLE=Various Artist - Wunderbare Welt der Märchen
DYEAR=2008
DGENRE=Hörbuch
TTITLE0=unknown Artist - Max und Moritz - Eine Bubengeschichte in sieben Streichen nach Wilhelm Busch
TTITLE1=Mitwirkende des Landestheaters Innsbruck - Rapunzel
TTITLE2=Tante Ursula und die Heinzelmännchen - Der gestiefelte Kater
TTITLE3=Herbert Fleischmann u.a. - Schneeweißchen und Rosenrot
EXTD=Du bist Deutschland and World Vision
EXTT0=
EXTT1=
EXTT2=
EXTT3=
PLAYORDER=
